<svg width="620" height="420" viewBox="0 0 620 420" fill="none" xmlns="http://www.w3.org/2000/svg" role="img" aria-labelledby="title desc">
  <title id="title">Pastel lesson planning stickers</title>
  <desc id="desc">A notebook, pencil, book, apple, and stars in a soft classroom illustration style.</desc>
  <rect x="78" y="78" width="284" height="236" rx="34" fill="#FFF7D6" stroke="#E9C974" stroke-width="8"/>
  <path d="M123 133H319M123 181H319M123 229H263" stroke="#83B7D8" stroke-width="11" stroke-linecap="round"/>
  <path d="M376 91L438 66L512 251L450 276L376 91Z" fill="#FFD9C7" stroke="#D98E79" stroke-width="8" stroke-linejoin="round"/>
  <path d="M438 66L466 55L540 240L512 251L438 66Z" fill="#CDEFD8" stroke="#6EA985" stroke-width="8" stroke-linejoin="round"/>
  <path d="M450 276L433 326L512 251" fill="#FFE8A7"/>
  <path d="M450 276L433 326L512 251" stroke="#B7835C" stroke-width="8" stroke-linejoin="round"/>
  <path d="M137 333C179 290 252 294 292 340C248 371 181 373 137 333Z" fill="#CFE7FF" stroke="#78A8CE" stroke-width="8"/>
  <path d="M191 308C193 274 218 253 248 251" stroke="#78A8CE" stroke-width="8" stroke-linecap="round"/>
  <circle cx="465" cy="333" r="39" fill="#FFB5A5" stroke="#CE7567" stroke-width="8"/>
  <path d="M466 289C472 268 490 256 511 258" stroke="#6EA985" stroke-width="8" stroke-linecap="round"/>
  <path d="M89 57L99 79L123 83L105 100L109 124L89 112L68 124L73 100L55 83L79 79L89 57Z" fill="#E7D8FF" stroke="#A98BD7" stroke-width="6" stroke-linejoin="round"/>
  <path d="M535 94L545 116L569 120L551 137L555 161L535 149L514 161L519 137L501 120L525 116L535 94Z" fill="#FFF1B8" stroke="#D3AE40" stroke-width="6" stroke-linejoin="round"/>
</svg>
